<svg id="curl" xmlns="http://www.w3.org/2000/svg" xmlns:xlink="http://www.w3.org/1999/xlink" viewBox="0 0 50 300" shape-rendering="geometricPrecision" text-rendering="geometricPrecision"><g id="curl-s-g1" transform="translate(-24.885252-116.165046)"><path id="curl-s-path1" d="M92.17278,118.67281c-10.74025,32.22077,17.99172,97.84767-1.39132,119.65359-26.06729,29.3257-34.1661-30.51061-8.34792-13.91321c3.86195,2.48269,7.24511,5.88467,9.73925,9.73924c16.8109,25.98048,7.36161,64.1385-13.91321,83.47925-1.23218,1.12016-10.07372,9.69909-13.91321,6.9566-9.23749-6.59821-6.10998-43.28844,23.65245-19.47849c17.90761,14.32609-23.22995,74.82721-5.56528,105.74038" transform="translate(-30.38352 0)" fill="none" stroke="#13c51b" stroke-width="5" stroke-linecap="round"/><path id="curl-s-path2" d="M64.2484,393.15504c1.02668,5.64676,3.22686,8.89754,6.52331,13.51256c13.76819,19.27547,17.54824-6.15748,26.55918-18.17207" transform="translate(-30.789645 0)" fill="none" stroke="#13c51b" stroke-width="5" stroke-linecap="round"/></g></svg>
