<svg id="connected-world" xmlns="http://www.w3.org/2000/svg" xmlns:xlink="http://www.w3.org/1999/xlink" viewBox="0 0 1200 1000" shape-rendering="geometricPrecision" text-rendering="geometricPrecision"><g id="connected-world-s-g1" transform="translate(11.696866 63.010716)"><g id="connected-world-u-lines-and-dots" transform="translate(1400.516482 1.092418)"><path id="connected-world-s-path25" d="M1002.86748,620.79489c0,0-273.2014-156.82256-390.81832-127.10881c0,0-249.26532,26.82491-278.15369,85.83971c0,0-79.23666-247.61456-108.125-255.86838" transform="translate(-1426.532766-35.503822)" opacity="0.8" fill="none" stroke="#6fcde3" stroke-width="8" stroke-miterlimit="10"/><path id="connected-world-s-path26" d="M333.89547,579.52579C379.70417,457.36928,792.3951,322.00665,792.3951,322.00665C733.793,336.86352,685.885443,511.640633,685.885443,511.640633s-331.355443-205.316243-460.114993-187.983223c0,0,567.03734,18.57109,777.097,297.13748" transform="translate(-1426.532766-35.503822)" opacity="0.8" fill="none" stroke="#6fcde3" stroke-width="8" stroke-miterlimit="10"/><circle id="connected-world-s-circle1" r="11.968" transform="translate(-1200.761866 288.153878)" fill="#6fcde3"/><circle id="connected-world-s-circle2" r="11.968" transform="translate(-1092.636866 544.021878)" fill="#6fcde3"/><circle id="connected-world-s-circle3" r="11.968" transform="translate(-634.137866 286.502878)" fill="#6fcde3"/><circle id="connected-world-s-circle4" r="11.968" transform="translate(-423.664866 585.290878)" fill="#6fcde3"/><circle id="connected-world-s-circle5" r="11.968" transform="translate(-740.647324 476.136811)" fill="#1a3d52"/></g></g></svg>
