<svg id="evs4Y72Pjfg1" xmlns="http://www.w3.org/2000/svg" xmlns:xlink="http://www.w3.org/1999/xlink" viewBox="0 0 250 500" shape-rendering="geometricPrecision" text-rendering="geometricPrecision"><path d="M189.60827,126.49619C122.45803,59.34595,55.62643,102.02915,31.82807,183.6235C24.8516,207.54283,6.360905,299.93263,15.505985,325.08161c2.82532,7.76963,13.839205,57.343147,16.322085,65.288357c5.38005,17.21615,12.22944,25.831183,25.8433,39.445053c3.57544,3.57544,17.968268,19.137768,21.762798,20.402608c37.8103,12.60343,66.961721,3.285902,96.572361-20.402608c5.13941-4.11153,14.636151-27.22254,17.682251-31.28401c9.69739-12.92986,17.83705-122.6227,9.52122-142.81828-15.42441-37.45929-73.22609-101.74576-116.97497-65.28836-10.31683,8.59736-10.88845,25.40168-17.68226,36.7247" transform="translate(15.126879 0)" fill="none" stroke="#fbf80c" stroke-width="8" stroke-linecap="round"/></svg>
