<svg id="eClrEgNAR0m1" xmlns="http://www.w3.org/2000/svg" xmlns:xlink="http://www.w3.org/1999/xlink" viewBox="0 0 250 500" shape-rendering="geometricPrecision" text-rendering="geometricPrecision" style=""><g><path d="M120.23939,102.01306c-8.0607-16.1214-12.24157-38.99306-12.24157-57.12731" fill="none" stroke="#0cfbee" stroke-width="8" stroke-linecap="round" class="UZfIeNOE_0"></path><path d="M88.95539,119.69532c-8.34793-5.00876-13.00901-11.50066-19.04244-19.04244" fill="none" stroke="#0cfbee" stroke-width="8" stroke-linecap="round" class="UZfIeNOE_1"></path><path d="M88.95539,160.50054c-27.66319,0-55.23075-4.08052-82.97062-4.08052" fill="none" stroke="#0cfbee" stroke-width="8" stroke-linecap="round" class="UZfIeNOE_2"></path><path d="M45.42982,273.395c-14.29757,4.76586-25.95966,23.65392-39.44505,32.64418" fill="none" stroke="#0cfbee" stroke-width="8" stroke-linecap="round" class="UZfIeNOE_3"></path><path d="M61.7519,325.08161c-5.46887,38.28207-8.6369,88.51997-40.80522,114.25462" fill="none" stroke="#0cfbee" stroke-width="8" stroke-linecap="round" class="UZfIeNOE_4"></path><path d="M90.31556,378.1284c0,20.90023-4.73954,42.03897-8.16104,62.56801" fill="none" stroke="#0cfbee" stroke-width="8" stroke-linecap="round" class="UZfIeNOE_5"></path><path d="M154.24374,398.53101c10.48926,19.81304,12.46314,31.94872,19.04244,51.68662" fill="none" stroke="#0cfbee" stroke-width="8" stroke-linecap="round" class="UZfIeNOE_6"></path><path d="M182.8074,337.32318c20.40293,11.65882,42.51264,16.53043,62.56801,28.56366" fill="none" stroke="#0cfbee" stroke-width="8" stroke-linecap="round" class="UZfIeNOE_7"></path><path d="M152.88357,110.1741c1.96369-4.90923,4.85803-9.47297,8.16105-13.60174" fill="none" stroke="#0cfbee" stroke-width="8" stroke-linecap="round" class="UZfIeNOE_8"></path><path d="M180.08705,127.85637c13.28257-7.96954,24.75178-17.84345,38.08488-25.84331" fill="none" stroke="#0cfbee" stroke-width="8" stroke-linecap="round" class="UZfIeNOE_9"></path><path d="M197.76931,197.22525c4.98731,0,9.97461,0,14.96192,0" fill="none" stroke="#0cfbee" stroke-width="8" stroke-linecap="round" class="UZfIeNOE_10"></path><path d="M184.16757,292.43743c22.18798,0,39.33306,6.18961,58.48749,17.68226" fill="none" stroke="#0cfbee" stroke-width="8" stroke-linecap="round" class="UZfIeNOE_11"></path></g><style data-made-with="vivus-instant">.UZfIeNOE_0{stroke-dasharray:59 61;stroke-dashoffset:60;animation:UZfIeNOE_draw 666ms linear 0ms forwards;}.UZfIeNOE_1{stroke-dasharray:28 30;stroke-dashoffset:29;animation:UZfIeNOE_draw 666ms linear 30ms forwards;}.UZfIeNOE_2{stroke-dasharray:84 86;stroke-dashoffset:85;animation:UZfIeNOE_draw 666ms linear 60ms forwards;}.UZfIeNOE_3{stroke-dasharray:52 54;stroke-dashoffset:53;animation:UZfIeNOE_draw 666ms linear 90ms forwards;}.UZfIeNOE_4{stroke-dasharray:125 127;stroke-dashoffset:126;animation:UZfIeNOE_draw 666ms linear 121ms forwards;}.UZfIeNOE_5{stroke-dasharray:64 66;stroke-dashoffset:65;animation:UZfIeNOE_draw 666ms linear 151ms forwards;}.UZfIeNOE_6{stroke-dasharray:56 58;stroke-dashoffset:57;animation:UZfIeNOE_draw 666ms linear 181ms forwards;}.UZfIeNOE_7{stroke-dasharray:69 71;stroke-dashoffset:70;animation:UZfIeNOE_draw 666ms linear 212ms forwards;}.UZfIeNOE_8{stroke-dasharray:16 18;stroke-dashoffset:17;animation:UZfIeNOE_draw 666ms linear 242ms forwards;}.UZfIeNOE_9{stroke-dasharray:47 49;stroke-dashoffset:48;animation:UZfIeNOE_draw 666ms linear 272ms forwards;}.UZfIeNOE_10{stroke-dasharray:15 17;stroke-dashoffset:16;animation:UZfIeNOE_draw 666ms linear 303ms forwards;}.UZfIeNOE_11{stroke-dasharray:62 64;stroke-dashoffset:63;animation:UZfIeNOE_draw 666ms linear 333ms forwards;}@keyframes UZfIeNOE_draw{100%{stroke-dashoffset:0;}}@keyframes UZfIeNOE_fade{0%{stroke-opacity:1;}92.3076923076923%{stroke-opacity:1;}100%{stroke-opacity:0;}}</style></svg>
