<svg id="eJ1cYC27XFZ1" xmlns="http://www.w3.org/2000/svg" xmlns:xlink="http://www.w3.org/1999/xlink" viewBox="0 0 250 500" shape-rendering="geometricPrecision" text-rendering="geometricPrecision" style=""><g><path d="M22.30686,74.80958c0-7.01757-3.0249-46.73566,2.72035-50.32644c6.63314-4.14571,28.08154,0,36.7247,0" transform="translate(.000001 0)" fill="none" stroke="#15ef18" stroke-width="8" stroke-linecap="round" class="WgQCKVtL_0"></path><path d="M98.47661,25.84331c8.61444,0,17.22887,0,25.84331,0" transform="translate(0 0.000001)" fill="none" stroke="#15ef18" stroke-width="8" stroke-linecap="round" class="WgQCKVtL_1"></path><path d="M154.24374,28.56366c18.98303-7.59321,39.77698-5.4407,59.84766-5.4407" fill="none" stroke="#15ef18" stroke-width="8" stroke-linecap="round" class="WgQCKVtL_2"></path><path d="M223.61262,44.88575c0,29.55428-1.36017,58.87798-1.36017,88.41132" fill="none" stroke="#15ef18" stroke-width="8" stroke-linecap="round" class="WgQCKVtL_3"></path><path d="M219.5321,171.38194c0,38.59485,4.08052,77.28056,4.08052,115.6148" fill="none" stroke="#15ef18" stroke-width="8" stroke-linecap="round" class="WgQCKVtL_4"></path><path d="M215.45158,349.56474c0,32.82641,9.96081,93.67362,1.36017,123.77584-3.20053,11.20184-21.12114,12.24157-29.92383,12.24157" transform="translate(0 0.000001)" fill="none" stroke="#15ef18" stroke-width="8" stroke-linecap="round" class="WgQCKVtL_5"></path><path d="M22.30686,149.61915c0,48.05948,0,96.11897,0,144.17845" fill="none" stroke="#15ef18" stroke-width="8" stroke-linecap="round" class="WgQCKVtL_6"></path><path d="M23.66703,342.76387c0,21.33869-8.56049,120.25661-1.36017,134.65724c3.5549,7.10981,83.61691,12.24157,96.57236,12.24157" fill="none" stroke="#15ef18" stroke-width="8" stroke-linecap="round" class="WgQCKVtL_7"></path></g><style data-made-with="vivus-instant">.WgQCKVtL_0{stroke-dasharray:89 91;stroke-dashoffset:90;animation:WgQCKVtL_draw 666ms linear 0ms forwards;}.WgQCKVtL_1{stroke-dasharray:26 28;stroke-dashoffset:27;animation:WgQCKVtL_draw 666ms linear 47ms forwards;}.WgQCKVtL_2{stroke-dasharray:61 63;stroke-dashoffset:62;animation:WgQCKVtL_draw 666ms linear 95ms forwards;}.WgQCKVtL_3{stroke-dasharray:89 91;stroke-dashoffset:90;animation:WgQCKVtL_draw 666ms linear 142ms forwards;}.WgQCKVtL_4{stroke-dasharray:116 118;stroke-dashoffset:117;animation:WgQCKVtL_draw 666ms linear 190ms forwards;}.WgQCKVtL_5{stroke-dasharray:159 161;stroke-dashoffset:160;animation:WgQCKVtL_draw 666ms linear 238ms forwards;}.WgQCKVtL_6{stroke-dasharray:145 147;stroke-dashoffset:146;animation:WgQCKVtL_draw 666ms linear 285ms forwards;}.WgQCKVtL_7{stroke-dasharray:234 236;stroke-dashoffset:235;animation:WgQCKVtL_draw 666ms linear 333ms forwards;}@keyframes WgQCKVtL_draw{100%{stroke-dashoffset:0;}}@keyframes WgQCKVtL_fade{0%{stroke-opacity:1;}92.3076923076923%{stroke-opacity:1;}100%{stroke-opacity:0;}}</style></svg>
