<svg id="eJ1cYC27XFZ1" xmlns="http://www.w3.org/2000/svg" xmlns:xlink="http://www.w3.org/1999/xlink" viewBox="0 0 250 500" shape-rendering="geometricPrecision" text-rendering="geometricPrecision"><g><path d="M22.30686,74.80958c0-7.01757-3.0249-46.73566,2.72035-50.32644c6.63314-4.14571,28.08154,0,36.7247,0" transform="translate(.000001 0)" fill="none" stroke="#15ef18" stroke-width="8" stroke-linecap="round"/><path d="M98.47661,25.84331c8.61444,0,17.22887,0,25.84331,0" transform="translate(0 0.000001)" fill="none" stroke="#15ef18" stroke-width="8" stroke-linecap="round"/><path d="M154.24374,28.56366c18.98303-7.59321,39.77698-5.4407,59.84766-5.4407" fill="none" stroke="#15ef18" stroke-width="8" stroke-linecap="round"/><path d="M223.61262,44.88575c0,29.55428-1.36017,58.87798-1.36017,88.41132" fill="none" stroke="#15ef18" stroke-width="8" stroke-linecap="round"/><path d="M219.5321,171.38194c0,38.59485,4.08052,77.28056,4.08052,115.6148" fill="none" stroke="#15ef18" stroke-width="8" stroke-linecap="round"/><path d="M215.45158,349.56474c0,32.82641,9.96081,93.67362,1.36017,123.77584-3.20053,11.20184-21.12114,12.24157-29.92383,12.24157" transform="translate(0 0.000001)" fill="none" stroke="#15ef18" stroke-width="8" stroke-linecap="round"/><path d="M22.30686,149.61915c0,48.05948,0,96.11897,0,144.17845" fill="none" stroke="#15ef18" stroke-width="8" stroke-linecap="round"/><path d="M23.66703,342.76387c0,21.33869-8.56049,120.25661-1.36017,134.65724c3.5549,7.10981,83.61691,12.24157,96.57236,12.24157" fill="none" stroke="#15ef18" stroke-width="8" stroke-linecap="round"/></g></svg>
