<svg id="eNzqEOgBkuK1" xmlns="http://www.w3.org/2000/svg" xmlns:xlink="http://www.w3.org/1999/xlink" viewBox="0 0 250 500" shape-rendering="geometricPrecision" text-rendering="geometricPrecision" style=""><g><path d="M93.03591,47.60609c2.51503,17.60524,30.34421,176.43367-16.32209,150.97933-63.82391-34.81304,52.90841-135.43014,65.28836-5.4407c1.50547,15.80748,4.77933,39.05821-1.36017,54.40696" transform="matrix(.982398-.186801 0.186801 0.982398 12.296365-7.518412)" fill="none" stroke="#e61414" stroke-width="8" stroke-linecap="round" class="vGOUTeml_0"></path><path d="M73.99347,333.24266c-7.79239,18.18224-25.52571,19.60564-36.7247,34.00435-9.83177,12.64085-14.02555,57.37234-5.4407,72.08923c15.44555,26.47808,115.91328,21.19981,119.69532-20.40261.45153-4.96682,2.64327-10.73269,0-14.96192-3.71667-5.94667-12.65587-4.08052-17.68226-4.08052-33.00604,0-28.5899,56.97472-1.36017,58.48749c12.40836.68935,19.55496-2.97661,29.92383-8.16104" transform="translate(0 0.000001)" fill="none" stroke="#e61414" stroke-width="8" stroke-linecap="round" class="vGOUTeml_1"></path></g><style data-made-with="vivus-instant">.vGOUTeml_0{stroke-dasharray:412 414;stroke-dashoffset:413;animation:vGOUTeml_draw 666ms linear 0ms forwards;}.vGOUTeml_1{stroke-dasharray:414 416;stroke-dashoffset:415;animation:vGOUTeml_draw 666ms linear 333ms forwards;}@keyframes vGOUTeml_draw{100%{stroke-dashoffset:0;}}@keyframes vGOUTeml_fade{0%{stroke-opacity:1;}92.3076923076923%{stroke-opacity:1;}100%{stroke-opacity:0;}}</style></svg>
